:SAMPLES-PER-SECOND 30
:FULLY-SPECIFIED
:DEGREES
146
root  -78.9927 41.7655 -8.53952 -152.183 -89.5533 151.49
RightUpLeg  -0.71366 -6.78133 -2.98014
RightLeg  3.03952 -5.73561 3.54041
RightFoot  -0.365915 0.238044 -2.51985
RightToes  3.49245e-010 0 -3.6325e-017
Spine  3.52966 -1.05559 2.38588
Spine1  -0.348775 -0.120392 -5.03147
HEad  -6.54322 2.87523 2.42446
LeftShoulder1  0.319739 0.184151 -1.27209
LeftArm  -15.5978 15.6151 -4.0544
LeftForeArm  16.6622 -9.605 -2.59343
LeftHand  -0.244104 0.0205437 5.32207
RightShoulder  0.323061 -1.4408 8.17773
RightArm  -18.0109 -4.41708 -3.35057
RightForeArm  -3.36788 0.881091 3.73522
RightHand  -0.858423 3.77327 -11.1418
LeftUpLeg  -1.91213 5.55254 3.93203
LeftLeg  2.71742 11.1833 -3.64811
LeftFoot  -0.423793 -0.0800536 0.850432
LeftToes  1.68253e-010 -2.29257e-011 3.59052e-011
147
root  -79.0509 41.7716 -8.54178 -167.807 -89.3179 167.246
RightUpLeg  -0.654047 -6.62679 -2.83487
RightLeg  2.73762 -5.63727 3.50411
RightFoot  -0.27167 0.229955 -2.39393
RightToes  3.49245e-010 0 -3.6325e-017
Spine  3.99119 -1.08951 2.1744
Spine1  -0.72616 -0.193263 -4.88364
HEad  -6.74851 2.88924 2.4496
LeftShoulder1  0.327569 0.112682 -1.30529
LeftArm  -15.4772 15.9833 -4.24986
LeftForeArm  16.9219 -9.06261 -2.50866
LeftHand  -0.244104 0.0205437 5.32207
RightShoulder  0.326284 -1.50189 8.8823
RightArm  -16.6188 -3.62683 -3.59498
RightForeArm  -5.19145 -0.0603445 4.25771
RightHand  -0.922081 3.70377 -11.9493
LeftUpLeg  -1.88333 5.64903 4.05165
LeftLeg  2.65376 11.3564 -3.68674
LeftFoot  -0.554528 -0.0786482 0.828588
LeftToes  1.68253e-010 -2.29257e-011 3.59052e-011
148
root  -79.1076 41.775 -8.53792 -171.241 -89.0683 170.877
RightUpLeg  -0.768901 -6.58883 -2.80551
RightLeg  2.65688 -5.43536 3.5072
RightFoot  -0.247692 0.227791 -2.36025
RightToes  3.49245e-010 0 -3.6325e-017
Spine  4.12259 -1.11311 1.97671
Spine1  -0.751637 -0.231436 -4.81261
HEad  -6.96249 2.89999 2.52756
LeftShoulder1  0.327403 0.0716811 -1.17269
LeftArm  -15.8107 16.2953 -4.47038
LeftForeArm  17.1728 -8.65635 -2.29267
LeftHand  -0.244104 0.0205437 5.32207
RightShoulder  0.358422 -1.38086 9.53417
RightArm  -14.7694 -2.59848 -4.04328
RightForeArm  -9.2704 -1.67722 5.06758
RightHand  -1.14813 4.44873 -13.7831
LeftUpLeg  -1.9112 5.65155 4.05178
LeftLeg  2.51978 11.6376 -3.71067
LeftFoot  -0.593377 -0.0791227 0.835963
LeftToes  1.68253e-010 -2.29257e-011 3.59052e-011
149
root  -79.1619 41.7782 -8.53666 -169.235 -88.7244 169.116
RightUpLeg  -1.03727 -6.61459 -2.86769
RightLeg  2.75202 -5.09132 3.4929
RightFoot  -0.303324 0.233803 -2.45383
RightToes  3.49245e-010 0 -3.6325e-017
Spine  4.08815 -1.04171 1.77327
Spine1  -0.735904 -0.168127 -4.75977
HEad  -6.95606 2.91967 2.56115
LeftShoulder1  0.341884 -0.118624 -1.06337
LeftArm  -13.668 16.4044 -4.00788
LeftForeArm  14.3949 -7.84737 -2.99042
LeftHand  -0.244104 0.0205437 5.32207
RightShoulder  0.408618 -1.12024 9.83316
RightArm  -13.9376 -2.27977 -4.53656
RightForeArm  -9.66916 -2.59943 5.31823
RightHand  -1.12501 4.32885 -13.6548
LeftUpLeg  -1.95779 5.60341 3.95333
LeftLeg  2.329 12.0399 -3.76364
LeftFoot  -0.540832 -0.0801984 0.852682
LeftToes  1.68253e-010 -2.29257e-011 3.59052e-011
150
root  -79.2084 41.7822 -8.54126 -167.73 -88.4431 167.808
RightUpLeg  -1.23363 -6.60712 -2.90341
RightLeg  2.79222 -4.84347 3.45165
RightFoot  -0.34632 0.239264 -2.53884
RightToes  3.49245e-010 0 -3.6325e-017
Spine  4.24083 -0.966415 1.55872
Spine1  -0.965293 -0.128184 -4.59526
HEad  -6.77279 2.98744 2.50349
LeftShoulder1  0.363261 -0.335614 -1.09788
LeftArm  -13.2987 16.4552 -3.64412
LeftForeArm  13.9186 -7.38014 -3.04207
LeftHand  -0.244104 0.0205437 5.32207
RightShoulder  0.435666 -0.964857 9.84914
RightArm  -13.3925 -2.57852 -4.77773
RightForeArm  -10.7384 -2.19989 5.56036
RightHand  -1.04643 3.615 -13.6908
LeftUpLeg  -1.98137 5.57338 3.88253
LeftLeg  2.17425 12.3428 -3.82323
LeftFoot  -0.538955 -0.0784572 0.825619
LeftToes  1.68253e-010 -2.29257e-011 3.59052e-011
151
root  -79.2429 41.7849 -8.54471 -168.898 -88.334 169.085
RightUpLeg  -1.26551 -6.55834 -2.86019
RightLeg  2.69509 -4.79037 3.43894
RightFoot  -0.319361 0.239096 -2.53623
RightToes  3.49245e-010 0 -3.6325e-017
Spine  4.61625 -0.98663 1.46417
Spine1  -1.34239 -0.182683 -4.46917
HEad  -6.54725 3.06666 2.50316
LeftShoulder1  0.362888 -0.363824 -1.00921
LeftArm  -15.2299 16.4589 -3.86355
LeftForeArm  16.1758 -7.21081 -2.24072
LeftHand  -0.244104 0.0205437 5.32207
RightShoulder  0.441836 -0.940344 9.93464
RightArm  -12.7898 -2.46873 -4.96917
RightForeArm  -12.0637 -2.07315 5.87388
RightHand  -1.0566 3.40712 -14.1242
LeftUpLeg  -2.00242 5.58584 3.90616
LeftLeg  2.12652 12.4477 -3.83888
LeftFoot  -0.611495 -0.0747006 0.767233
LeftToes  1.68253e-010 -2.29257e-011 3.59052e-011
152
root  -79.2689 41.7861 -8.54134 -171.167 -88.3043 171.428
RightUpLeg  -1.25706 -6.51772 -2.79869
RightLeg  2.58695 -4.79537 3.46191
RightFoot  -0.281791 0.237331 -2.50876
RightToes  3.49245e-010 0 -3.6325e-017
Spine  4.90942 -1.02809 1.47954
Spine1  -1.52844 -0.243347 -4.39315
HEad  -6.36717 3.07238 2.54362
LeftShoulder1  0.3518 -0.274501 -0.927203
LeftArm  -16.6918 16.2995 -4.13351
LeftForeArm  17.6806 -7.18482 -1.68269
LeftHand  -0.244104 0.0205437 5.32207
RightShoulder  0.441549 -0.946223 9.96598
RightArm  -11.911 -2.08288 -5.0927
RightForeArm  -12.9184 -2.34763 6.27388
RightHand  -1.17438 4.06663 -14.6131
LeftUpLeg  -2.05103 5.61444 3.9612
LeftLeg  2.15583 12.4716 -3.82516
LeftFoot  -0.670864 -0.0731786 0.743577
LeftToes  1.68253e-010 -2.29257e-011 3.59052e-011
153
root  -79.2939 41.7867 -8.53782 -171.301 -88.2591 171.685
RightUpLeg  -1.35791 -6.51452 -2.79704
RightLeg  2.59038 -4.75114 3.47202
RightFoot  -0.313816 0.237291 -2.50813
RightToes  3.49245e-010 0 -3.6325e-017
Spine  4.929 -1.00882 1.45694
Spine1  -1.43479 -0.242606 -4.26963
HEad  -6.25522 3.02507 2.50065
LeftShoulder1  0.352215 -0.231625 -1.05769
LeftArm  -16.113 15.9059 -3.92632
LeftForeArm  16.8929 -7.11621 -1.95109
LeftHand  -0.244104 0.0205437 5.32207
RightShoulder  0.443315 -0.919863 9.84586
RightArm  -10.9692 -1.90736 -5.0899
RightForeArm  -13.4163 -2.37563 6.67968
RightHand  -1.28357 4.80444 -14.831
LeftUpLeg  -2.13809 5.61736 3.95504
LeftLeg  2.15958 12.5286 -3.84196
LeftFoot  -0.687199 -0.0751385 0.774038
LeftToes  1.68253e-010 -2.29257e-011 3.59052e-011
154
root  -79.32 41.7869 -8.54027 -169.156 -88.2083 169.727
RightUpLeg  -1.56438 -6.5342 -2.84484
RightLeg  2.67164 -4.68616 3.45908
RightFoot  -0.393446 0.237173 -2.50629
RightToes  3.49245e-010 0 -3.6325e-017
Spine  4.85162 -0.975431 1.39759
Spine1  -1.38713 -0.22088 -4.19638
HEad  -6.11964 2.99465 2.42662
LeftShoulder1  0.355395 -0.24363 -1.1206
LeftArm  -14.5801 15.4316 -3.55976
LeftForeArm  15.6478 -7.02452 -2.58223
LeftHand  -0.244104 0.0205437 5.32207
RightShoulder  0.468094 -0.785779 9.92089
RightArm  -10.802 -1.64658 -5.07802
RightForeArm  -13.0492 -2.74673 6.74147
RightHand  -1.33793 5.36944 -14.6573
LeftUpLeg  -2.25802 5.59283 3.89423
LeftLeg  2.09328 12.6128 -3.90241
LeftFoot  -0.693728 -0.0773596 0.808559
LeftToes  1.68253e-010 -2.29257e-011 3.59052e-011
